<svg xmlns="http://www.w3.org/2000/svg" viewBox="0 0 1000 1000" width="100%" height="100%">
  <g transform="scale(1, -1) translate(0, -800)">
    <path d="M1887 -248C1963 -323 2088 -324 2162 -246C2236 -171 2236 -50 2161 26L368 1820C293 1896 169 1896 93 1820C18 1746 18 1621 93 1546ZM1970 -166C1999 -195 2049 -196 2079 -166C2108 -135 2109 -87 2079 -57L286 1738C256 1768 206 1768 176 1738C147 1708 147 1658 176 1629ZM450 817H600V1546C600 1627 647 1676 736 1676H1519C1608 1676 1655 1627 1655 1546V1468H1806V1567C1806 1717 1702 1822 1539 1822H716C553 1822 449 1717 449 1567ZM717 -336H1540C1703 -336 1807 -230 1807 -80V670H1656V-59C1656 -141 1609 -190 1520 -190H737C648 -190 600 -141 600 -59V19H450V-80C450 -230 554 -336 717 -336ZM1823 1345H1411C1371 1345 1348 1313 1348 1282C1349 1250 1372 1217 1414 1217L1570 1216L1794 1232L1777 1010L1776 849C1776 806 1810 784 1842 783C1874 784 1906 805 1906 846V1263C1906 1316 1876 1345 1823 1345ZM1818 1163C1843 1190 1844 1230 1818 1256C1792 1282 1751 1281 1724 1256L1575 1116L1418 961C1402 945 1397 927 1396 911C1396 873 1435 835 1474 835C1487 835 1507 841 1521 856L1677 1012ZM433 141H845C885 141 907 173 907 205C906 237 884 270 842 270L686 271L461 254L479 477L480 638C480 681 446 703 413 704C382 703 350 682 350 641V224C350 171 380 141 433 141ZM438 324C413 297 412 257 438 231C464 205 505 206 532 231L681 371L838 526C854 541 859 559 860 576C860 614 821 651 782 651C769 651 749 646 735 631L579 474Z" fill="currentColor" />
  </g>
</svg>