<svg xmlns="http://www.w3.org/2000/svg" width="100%" height="100%" viewBox="0 0 1000 1000"><g><path fill="currentColor" d="M1180 62H1745C2191 62 2449 305 2449 722C2449 1139 2191 1383 1745 1383H1180C734 1383 477 1139 477 722C477 305 734 62 1180 62ZM179 722C179 143 578 -236 1180 -236H1745C2347 -236 2747 143 2747 722C2747 1301 2347 1680 1745 1680H1180C578 1680 179 1301 179 722ZM340 722C340 1198 681 1519 1180 1519H1745C2245 1519 2586 1198 2586 722C2586 246 2245 -75 1745 -75H1180C681 -75 340 246 340 722Z" transform="scale(1, -1) translate(0, -800)"/></g></svg>